<?xml version="1.0" encoding="UTF-8"?>
<svg height="16px" viewBox="0 0 16 16" width="16px" xmlns="http://www.w3.org/2000/svg" xmlns:xlink="http://www.w3.org/1999/xlink">
    <filter id="a" height="100%" width="100%" x="0%" y="0%">
        <feColorMatrix color-interpolation-filters="sRGB" values="0 0 0 0 1 0 0 0 0 1 0 0 0 0 1 0 0 0 1 0"/>
    </filter>
    <mask id="b">
        <g filter="url(#a)">
            <rect fill-opacity="0.369691" height="19.2" width="19.2" x="-1.6" y="-1.6"/>
        </g>
    </mask>
    <linearGradient id="c" gradientUnits="userSpaceOnUse">
        <stop offset="0" stop-color="#3d3846"/>
        <stop offset="1" stop-color="#3d3846" stop-opacity="0"/>
    </linearGradient>
    <linearGradient id="d" gradientTransform="matrix(1.025978 0.27491 -0.259881 0.96989 189.965393 -253.364761)" x1="19.363415" x2="21.556448" xlink:href="#c" y1="391.839661" y2="400.497467"/>
    <linearGradient id="e" gradientTransform="matrix(1.025978 0.27491 -0.259881 0.96989 189.965393 -253.364761)" x1="-70.879456" x2="-77.245186" xlink:href="#c" y1="389.580292" y2="391.384613"/>
    <linearGradient id="f" gradientTransform="matrix(1.025978 0.27491 -0.259881 0.96989 189.965393 -253.364761)" x1="23.174662" x2="28.630997" xlink:href="#c" y1="329.927795" y2="328.381226"/>
    <linearGradient id="g" gradientTransform="matrix(1.025978 0.27491 -0.259881 0.96989 189.965393 -253.364761)" x1="-60.280441" x2="-62.229801" xlink:href="#c" y1="323.682373" y2="315.986542"/>
    <clipPath id="h">
        <rect height="152" width="192"/>
    </clipPath>
    <g mask="url(#b)">
        <g clip-path="url(#h)" transform="matrix(1 0 0 1 -168 -16)">
            <path d="m 66.207031 132 l 39.21875 10.507812 c 5.140625 1.378907 10.316407 -1.390624 11.605469 -6.207031 l 1.152344 -4.300781 z m 0 0" fill="url(#d)"/>
            <path d="m 16 80.628906 l -7.152344 26.6875 c -1.289062 4.8125 1.808594 9.796875 6.949219 11.175782 l 0.203125 0.054687 z m 0 0" fill="url(#e)"/>
            <path d="m 128 57.453125 v 37.917969 l 7.148438 -26.683594 c 1.292968 -4.816406 -1.804688 -9.800781 -6.945313 -11.179688 z m 0 0" fill="url(#f)"/>
            <path d="m 35.703125 33.140625 c -4.074219 0.085937 -7.6875 2.644531 -8.734375 6.558594 l -1.15625 4.300781 h 51.980469 l -39.222657 -10.511719 c -0.960937 -0.257812 -1.925781 -0.367187 -2.867187 -0.347656 z m 0 0" fill="url(#g)"/>
        </g>
    </g>
    <g fill="#241f31">
        <path d="m 15.917969 5.941406 v 0.007813 c 0 -3.632813 -2.960938 -5.94531275 -6.054688 -5.9414065 l -1.605469 0.0039063 c -3.382812 0.0078124 -6.308593 2.3828122 -7.050781 5.7304692 l -1.1093748 5.023437 c -0.0664062 0.292969 0.0039058 0.601563 0.1914058 0.839844 c 0.1875 0.234375 0.46875 0.371093 0.769532 0.371093 l 3.210937 -0.007812 h -0.035156 s -0.152344 -0.089844 -0.152344 -0.089844 s -0.011719 -0.015625 -0.011719 -0.015625 s -0.011718 -0.019531 -0.011718 -0.019531 s -0.011719 -0.023438 -0.011719 -0.023438 s -0.007813 -0.023437 -0.007813 -0.023437 s -0.007812 -0.03125 -0.007812 -0.03125 s -0.003906 -0.039063 -0.003906 -0.039063 v 1.644532 c 0 1.445312 1.152344 2.601562 2.574218 2.597656 c 1.5625 -0.007812 4.035157 -0.015625 6.332032 -0.023438 c 1.683594 -0.003906 3.039062 -1.382812 3.027344 -3.09375 z m -2.992188 8.015625 c -2.292969 0.003907 -4.769531 0.015625 -6.332031 0.019531 c -0.328125 0.003907 -0.601562 -0.273437 -0.601562 -0.605468 c 0 -0.492188 0 -1.054688 0 -1.644532 c 0 -0.972656 -0.769532 -1.75 -1.726563 -1.746093 l -3.210937 0.007812 l 0.960937 1.210938 l 1.109375 -5.023438 c 0.539062 -2.433593 2.675781 -4.167969 5.136719 -4.171875 l 1.605469 -0.003906 c 2.085937 -0.003906 4.085937 1.476562 4.085937 3.949219 v 0.007812 l 0.042969 6.910157 c 0.003906 0.597656 -0.476563 1.085937 -1.070313 1.089843 z m 0 0"/>
        <path d="m 9.636719 4.3125 c 0 0.726562 -0.582031 1.316406 -1.296875 1.316406 c -0.71875 0 -1.296875 -0.589844 -1.296875 -1.316406 c 0 -0.722656 0.578125 -1.3125 1.296875 -1.3125 c 0.714844 0 1.296875 0.589844 1.296875 1.3125 z m 0 0"/>
        <path d="m 9.636719 7.722656 c 0 0.726563 -0.582031 1.3125 -1.296875 1.3125 s -1.296875 -0.585937 -1.296875 -1.3125 c 0 -0.726562 0.582031 -1.3125 1.296875 -1.3125 s 1.296875 0.585938 1.296875 1.3125 z m 0 0"/>
        <path d="m 13.042969 6.039062 c 0 0.722657 -0.582031 1.3125 -1.296875 1.3125 s -1.296875 -0.589843 -1.296875 -1.3125 c 0 -0.726562 0.582031 -1.316406 1.296875 -1.316406 s 1.296875 0.589844 1.296875 1.316406 z m 0 0"/>
        <path d="m 7.925781 4.375 v 4.054688 l 4.082031 -1.933594 l -0.363281 -0.769532 l -2.867187 1.359376 v -2.710938 z m 0 0"/>
        <path d="m 13.042969 9.386719 c 0 0.726562 -0.582031 1.316406 -1.296875 1.316406 s -1.296875 -0.589844 -1.296875 -1.316406 c 0 -0.722657 0.582031 -1.3125 1.296875 -1.3125 s 1.296875 0.589843 1.296875 1.3125 z m 0 0"/>
        <path d="m 8.71875 7.367188 l -0.4375 0.898437 l 3.28125 1.597656 l 0.4375 -0.902343 z m 0 0"/>
    </g>
</svg>
