<?xml version="1.0" encoding="UTF-8"?>
<svg height="128px" viewBox="0 0 128 128" width="128px" xmlns="http://www.w3.org/2000/svg" xmlns:xlink="http://www.w3.org/1999/xlink">
    <filter id="a" height="100%" width="100%" x="0%" y="0%">
        <feColorMatrix color-interpolation-filters="sRGB" values="0 0 0 0 1 0 0 0 0 1 0 0 0 0 1 0 0 0 1 0"/>
    </filter>
    <mask id="b">
        <g filter="url(#a)">
            <rect fill-opacity="0.369691" height="153.6" width="153.6" x="-12.8" y="-12.8"/>
        </g>
    </mask>
    <linearGradient id="c" gradientUnits="userSpaceOnUse">
        <stop offset="0" stop-color="#3d3846"/>
        <stop offset="1" stop-color="#3d3846" stop-opacity="0"/>
    </linearGradient>
    <linearGradient id="d" gradientTransform="matrix(1.025978 0.27491 -0.259881 0.96989 189.965393 -253.364761)" x1="19.363415" x2="21.556448" xlink:href="#c" y1="391.839661" y2="400.497467"/>
    <linearGradient id="e" gradientTransform="matrix(1.025978 0.27491 -0.259881 0.96989 189.965393 -253.364761)" x1="-70.879456" x2="-77.245186" xlink:href="#c" y1="389.580292" y2="391.384613"/>
    <linearGradient id="f" gradientTransform="matrix(1.025978 0.27491 -0.259881 0.96989 189.965393 -253.364761)" x1="23.174662" x2="28.630997" xlink:href="#c" y1="329.927795" y2="328.381226"/>
    <linearGradient id="g" gradientTransform="matrix(1.025978 0.27491 -0.259881 0.96989 189.965393 -253.364761)" x1="-60.280441" x2="-62.229801" xlink:href="#c" y1="323.682373" y2="315.986542"/>
    <clipPath id="h">
        <rect height="152" width="192"/>
    </clipPath>
    <path d="m 30.574219 17.492188 l 89.628906 24.015624 c 5.125 1.371094 8.234375 6.378907 6.949219 11.179688 l -18.121094 67.613281 c -1.285156 4.800781 -6.480469 7.582031 -11.605469 6.207031 l -89.628906 -24.015624 c -5.125 -1.371094 -8.234375 -6.378907 -6.949219 -11.179688 l 18.121094 -67.613281 c 1.285156 -4.800781 6.480469 -7.582031 11.605469 -6.207031 z m 0 0" fill="#3584e4"/>
    <path d="m 17.605469 28 h 92.789062 c 5.304688 0 9.605469 4.03125 9.605469 9 v 70 c 0 4.96875 -4.300781 9 -9.605469 9 h -92.789062 c -5.304688 0 -9.605469 -4.03125 -9.605469 -9 v -70 c 0 -4.96875 4.300781 -9 9.605469 -9 z m 0 0" fill="#ffffff"/>
    <g mask="url(#b)">
        <g clip-path="url(#h)" transform="matrix(1 0 0 1 -8 -16)">
            <path d="m 66.207031 132 l 39.21875 10.507812 c 5.140625 1.378907 10.316407 -1.390624 11.605469 -6.207031 l 1.152344 -4.300781 z m 0 0" fill="url(#d)"/>
            <path d="m 16 80.628906 l -7.152344 26.6875 c -1.289062 4.8125 1.808594 9.796875 6.949219 11.175782 l 0.203125 0.054687 z m 0 0" fill="url(#e)"/>
            <path d="m 128 57.453125 v 37.917969 l 7.148438 -26.683594 c 1.292968 -4.816406 -1.804688 -9.800781 -6.945313 -11.179688 z m 0 0" fill="url(#f)"/>
            <path d="m 35.703125 33.140625 c -4.074219 0.085937 -7.6875 2.644531 -8.734375 6.558594 l -1.15625 4.300781 h 51.980469 l -39.222657 -10.511719 c -0.960937 -0.257812 -1.925781 -0.367187 -2.867187 -0.347656 z m 0 0" fill="url(#g)"/>
        </g>
    </g>
    <path d="m 60.320312 101.636719 l 22.105469 -10.554688 l -1.054687 -2.664062 c -1.628906 -4.101563 -1.695313 -8.660157 -0.183594 -12.804688 l 3.1875 -8.757812 c 1.851562 -5.082031 1.453125 -10.710938 -1.09375 -15.484375 c -2.941406 -5.515625 -12.988281 -10.644532 -21.960938 -8.515625 c -10.710937 2.546875 -16.792968 7.769531 -23.332031 11.535156 c 1.242188 3.398437 2.207031 7.019531 6.78125 7.789063 l -6.164062 18.464843 l 5.113281 -0.09375 v 8.976563 c 0 1.761718 1.371094 3.21875 3.128906 3.332031 l 4.632813 0.292969 c 1.976562 0.125 3.78125 1.148437 4.90625 2.777344 z m 0 0" fill="#3584e4"/>
    <g fill="#ffffff">
        <path d="m 51.765625 67.835938 c 0 0.980468 -0.796875 1.777343 -1.777344 1.777343 c -0.984375 0 -1.777343 -0.796875 -1.777343 -1.777343 c 0 -0.984376 0.792968 -1.777344 1.777343 -1.777344 c 0.980469 0 1.777344 0.792968 1.777344 1.777344 z m 0 0"/>
        <path d="m 67.40625 62.960938 c 0 1.535156 -1.246094 2.777343 -2.777344 2.777343 c -1.535156 0 -2.777344 -1.242187 -2.777344 -2.777343 c 0 -1.535157 1.242188 -2.777344 2.777344 -2.777344 c 1.53125 0 2.777344 1.242187 2.777344 2.777344 z m 0 0"/>
        <path d="m 61.132812 53.699219 c 0 1.535156 -1.242187 2.777343 -2.777343 2.777343 c -1.53125 0 -2.777344 -1.242187 -2.777344 -2.777343 c 0 -1.535157 1.246094 -2.777344 2.777344 -2.777344 c 1.535156 0 2.777343 1.242187 2.777343 2.777344 z m 0 0"/>
        <path d="m 70.910156 50.886719 c 0 1.535156 -1.242187 2.777343 -2.777344 2.777343 c -1.53125 0 -2.777343 -1.242187 -2.777343 -2.777343 c 0 -1.535157 1.246093 -2.777344 2.777343 -2.777344 c 1.535157 0 2.777344 1.242187 2.777344 2.777344 z m 0 0"/>
        <path d="m 78.84375 57.707031 c 0 1.535157 -1.242188 2.777344 -2.777344 2.777344 s -2.777344 -1.242187 -2.777344 -2.777344 c 0 -1.535156 1.242188 -2.777343 2.777344 -2.777343 s 2.777344 1.242187 2.777344 2.777343 z m 0 0"/>
        <path d="m 78.136719 68.425781 c 0 1.535157 -1.242188 2.777344 -2.777344 2.777344 c -1.53125 0 -2.777344 -1.242187 -2.777344 -2.777344 c 0 -1.535156 1.246094 -2.777343 2.777344 -2.777343 c 1.535156 0 2.777344 1.242187 2.777344 2.777343 z m 0 0"/>
    </g>
    <path d="m 75.40625 68.5625 l -10.761718 -5.617187 l 11.546875 -5.160157" fill="none" stroke="#ffffff"/>
    <path d="m 68.273438 50.800781 l -3.628906 12.144532 l -6.273438 -9.21875" fill="none" stroke="#ffffff"/>
    <path d="m 66.183594 62.960938 c 0 0.859374 -0.695313 1.554687 -1.554688 1.554687 s -1.558594 -0.695313 -1.558594 -1.554687 c 0 -0.859376 0.699219 -1.558594 1.558594 -1.558594 s 1.554688 0.699218 1.554688 1.558594 z m 0 0" fill="#3584e4"/>
</svg>
