<?xml version="1.0" encoding="UTF-8" standalone="no"?>
<svg
   height="128px"
   viewBox="0 0 128 128"
   width="128px"
   version="1.1"
   id="svg6"
   sodipodi:docname="io.github.david_swift.Flashcards-shadow.svg"
   inkscape:version="1.3.2 (091e20ef0f, 2023-11-25)"
   xmlns:inkscape="http://www.inkscape.org/namespaces/inkscape"
   xmlns:sodipodi="http://sodipodi.sourceforge.net/DTD/sodipodi-0.dtd"
   xmlns="http://www.w3.org/2000/svg"
   xmlns:svg="http://www.w3.org/2000/svg">
  <defs
     id="defs6">
    <filter
       style="color-interpolation-filters:sRGB;"
       inkscape:label="Drop Shadow"
       id="filter73"
       x="-0.035291331"
       y="-0.042815332"
       width="1.0797731"
       height="1.0967805">
      <feFlood
         result="flood"
         in="SourceGraphic"
         flood-opacity="0.250980"
         flood-color="rgb(0,0,0)"
         id="feFlood72" />
      <feGaussianBlur
         result="blur"
         in="SourceGraphic"
         stdDeviation="1.600000"
         id="feGaussianBlur72" />
      <feOffset
         result="offset"
         in="blur"
         dx="1.000000"
         dy="1.000000"
         id="feOffset72" />
      <feComposite
         result="comp1"
         operator="in"
         in="flood"
         in2="offset"
         id="feComposite72" />
      <feComposite
         result="comp2"
         operator="over"
         in="SourceGraphic"
         in2="comp1"
         id="feComposite73" />
    </filter>
    <filter
       style="color-interpolation-filters:sRGB;"
       inkscape:label="Drop Shadow"
       id="filter75"
       x="-0.03109598"
       y="-0.034823958"
       width="1.0702899"
       height="1.0787167">
      <feFlood
         result="flood"
         in="SourceGraphic"
         flood-opacity="0.250980"
         flood-color="rgb(0,0,0)"
         id="feFlood73" />
      <feGaussianBlur
         result="blur"
         in="SourceGraphic"
         stdDeviation="1.600000"
         id="feGaussianBlur73" />
      <feOffset
         result="offset"
         in="blur"
         dx="1.000000"
         dy="1.000000"
         id="feOffset73" />
      <feComposite
         result="comp1"
         operator="in"
         in="flood"
         in2="offset"
         id="feComposite74" />
      <feComposite
         result="comp2"
         operator="over"
         in="SourceGraphic"
         in2="comp1"
         id="feComposite75" />
    </filter>
  </defs>
  <sodipodi:namedview
     id="namedview6"
     pagecolor="#ffffff"
     bordercolor="#000000"
     borderopacity="0.25"
     inkscape:showpageshadow="2"
     inkscape:pageopacity="0.0"
     inkscape:pagecheckerboard="0"
     inkscape:deskcolor="#d1d1d1"
     inkscape:zoom="3.3849886"
     inkscape:cx="40.177388"
     inkscape:cy="72.673804"
     inkscape:window-width="1344"
     inkscape:window-height="884"
     inkscape:window-x="35"
     inkscape:window-y="32"
     inkscape:window-maximized="0"
     inkscape:current-layer="svg6" />
  <clipPath
     id="a">
    <path
       d="m 0 0 h 128 v 123 h -128 z m 0 0"
       id="path1" />
  </clipPath>
  <clipPath
     id="b">
    <path
       d="m 31.902344 -1.339844 l 90.707031 22.773438 c 4.554687 1.144531 7.253906 5.53125 6.035156 9.796875 l -24.304687 85.003906 c -1.21875 4.269531 -5.902344 6.800781 -10.453125 5.65625 l -90.707031 -22.777344 c -4.554688 -1.140625 -7.257813 -5.527343 -6.035157 -9.796875 l 24.304688 -85 c 1.21875 -4.269531 5.898437 -6.800781 10.453125 -5.65625 z m 0 0"
       id="path2" />
  </clipPath>
  <path
     d="m 33.507812 12.171875 l 85.601563 21.496094 c 4.554687 1.140625 7.257813 5.527343 6.039063 9.796875 l -20.808594 72.769531 c -1.21875 4.269531 -5.902344 6.800781 -10.453125 5.65625 l -85.605469 -21.496094 c -4.554688 -1.140625 -7.257812 -5.527343 -6.035156 -9.796875 l 20.804687 -72.769531 c 1.222657 -4.269531 5.902344 -6.800781 10.457031 -5.65625 z m 0 0"
     fill="#f6f5f4"
     id="path3"
     style="filter:url(#filter75)" />
  <path
     d="m 18.113281 21.417969 h 91.734375 c 4.714844 0 8.535156 3.582031 8.535156 8 v 73.6875 c 0 4.417969 -3.820312 8 -8.535156 8 h -91.734375 c -4.714843 0 -8.539062 -3.582031 -8.539062 -8 v -73.6875 c 0 -4.417969 3.824219 -8 8.539062 -8 z m 0 0"
     fill="#ffffff"
     id="path4"
     style="filter:url(#filter73)" />
  <g
     fill="#deddda"
     id="g6">
    <path
       d="m 29.09375 45.496094 h 69.238281 v 9.695312 h -69.238281 z m 0 0"
       id="path5" />
    <path
       d="m 29.09375 59.496094 h 42.945312 v 9.695312 h -42.945312 z m 0 0"
       id="path6" />
  </g>
</svg>
