<?xml version="1.0" encoding="UTF-8" standalone="no"?>
<svg
   height="128px"
   viewBox="0 0 128 128"
   width="128px"
   version="1.1"
   id="svg39"
   sodipodi:docname="io.github.david_swift.Flashcards.Devel.svg"
   inkscape:version="1.3.2 (091e20ef0f, 2023-11-25)"
   xmlns:inkscape="http://www.inkscape.org/namespaces/inkscape"
   xmlns:sodipodi="http://sodipodi.sourceforge.net/DTD/sodipodi-0.dtd"
   xmlns:xlink="http://www.w3.org/1999/xlink"
   xmlns="http://www.w3.org/2000/svg"
   xmlns:svg="http://www.w3.org/2000/svg">
  <sodipodi:namedview
     id="namedview39"
     pagecolor="#505050"
     bordercolor="#ffffff"
     borderopacity="1"
     inkscape:showpageshadow="0"
     inkscape:pageopacity="0"
     inkscape:pagecheckerboard="1"
     inkscape:deskcolor="#d1d1d1"
     inkscape:current-layer="svg39" />
  <defs
     id="defs23">
    <filter
       id="a"
       height="1"
       width="1"
       x="0"
       y="0">
      <feColorMatrix
         color-interpolation-filters="sRGB"
         values="0 0 0 0 1 0 0 0 0 1 0 0 0 0 1 0 0 0 1 0"
         id="feColorMatrix1" />
    </filter>
    <mask
       id="b">
      <g
         filter="url(#a)"
         id="g1">
        <rect
           fill-opacity="0.369691"
           height="153.6"
           width="153.6"
           x="-12.8"
           y="-12.8"
           id="rect1" />
      </g>
    </mask>
    <clipPath
       id="c">
      <path
         d="m 0 0 h 128 v 128 h -128 z m 0 0"
         id="path1" />
    </clipPath>
    <mask
       id="d">
      <g
         filter="url(#a)"
         id="g2">
        <rect
           fill-opacity="0.369691"
           height="221.184"
           width="221.184"
           x="-46.592"
           y="-46.592"
           id="rect2" />
      </g>
    </mask>
    <linearGradient
       id="e"
       gradientUnits="userSpaceOnUse">
      <stop
         offset="0"
         stop-color="#3d3846"
         id="stop2" />
      <stop
         offset="1"
         stop-color="#3d3846"
         stop-opacity="0"
         id="stop3" />
    </linearGradient>
    <linearGradient
       id="f"
       gradientTransform="matrix(1.025978 0.27491 -0.259881 0.96989 189.965393 -253.364761)"
       x1="19.363415"
       x2="21.556448"
       xlink:href="#e"
       y1="391.839661"
       y2="400.497467" />
    <linearGradient
       id="g"
       gradientTransform="matrix(1.025978 0.27491 -0.259881 0.96989 189.965393 -253.364761)"
       x1="-70.879456"
       x2="-77.245186"
       xlink:href="#e"
       y1="389.580292"
       y2="391.384613" />
    <linearGradient
       id="h"
       gradientTransform="matrix(1.025978 0.27491 -0.259881 0.96989 189.965393 -253.364761)"
       x1="23.174662"
       x2="28.630997"
       xlink:href="#e"
       y1="329.927795"
       y2="328.381226" />
    <linearGradient
       id="i"
       gradientTransform="matrix(1.025978 0.27491 -0.259881 0.96989 189.965393 -253.364761)"
       x1="-60.280441"
       x2="-62.229801"
       xlink:href="#e"
       y1="323.682373"
       y2="315.986542" />
    <clipPath
       id="j">
      <rect
         height="152"
         width="192"
         id="rect3" />
    </clipPath>
    <g
       id="k"
       clip-path="url(#j)">
      <path
         d="m 66.207031 132 l 39.21875 10.507812 c 5.140625 1.378907 10.316407 -1.390624 11.605469 -6.207031 l 1.152344 -4.300781 z m 0 0"
         fill="url(#f)"
         id="path3" />
      <path
         d="m 16 80.628906 l -7.152344 26.6875 c -1.289062 4.8125 1.808594 9.796875 6.949219 11.175782 l 0.203125 0.054687 z m 0 0"
         fill="url(#g)"
         id="path4" />
      <path
         d="m 128 57.453125 v 37.917969 l 7.148438 -26.683594 c 1.292968 -4.816406 -1.804688 -9.800781 -6.945313 -11.179688 z m 0 0"
         fill="url(#h)"
         id="path5" />
      <path
         d="m 35.703125 33.140625 c -4.074219 0.085937 -7.6875 2.644531 -8.734375 6.558594 l -1.15625 4.300781 h 51.980469 l -39.222657 -10.511719 c -0.960937 -0.257812 -1.925781 -0.367187 -2.867187 -0.347656 z m 0 0"
         fill="url(#i)"
         id="path6" />
    </g>
    <clipPath
       id="l">
      <rect
         height="128"
         width="128"
         id="rect6" />
    </clipPath>
    <clipPath
       id="m">
      <rect
         height="128"
         width="128"
         id="rect7" />
    </clipPath>
    <mask
       id="n">
      <g
         filter="url(#a)"
         id="g20">
        <g
           clip-path="url(#m)"
           filter="url(#a)"
           id="g19">
          <g
             clip-path="url(#l)"
             id="g18">
            <path
               d="m 30.574219 17.492188 l 89.628906 24.015624 c 5.125 1.371094 8.234375 6.378907 6.949219 11.179688 l -18.121094 67.613281 c -1.285156 4.800781 -6.480469 7.582031 -11.605469 6.207031 l -89.628906 -24.015624 c -5.125 -1.371094 -8.234375 -6.378907 -6.949219 -11.179688 l 18.121094 -67.613281 c 1.285156 -4.800781 6.480469 -7.582031 11.605469 -6.207031 z m 0 0"
               fill="#3584e4"
               id="path7" />
            <path
               d="m 17.605469 28 h 92.789062 c 5.304688 0 9.605469 4.03125 9.605469 9 v 70 c 0 4.96875 -4.300781 9 -9.605469 9 h -92.789062 c -5.304688 0 -9.605469 -4.03125 -9.605469 -9 v -70 c 0 -4.96875 4.300781 -9 9.605469 -9 z m 0 0"
               fill="#ffffff"
               id="path8" />
            <g
               clip-path="url(#c)"
               id="g9">
              <g
                 mask="url(#d)"
                 id="g8">
                <use
                   transform="matrix(1 0 0 1 -8 -16)"
                   xlink:href="#k"
                   id="use8" />
              </g>
            </g>
            <path
               d="m 60.320312 101.636719 l 22.105469 -10.554688 l -1.054687 -2.664062 c -1.628906 -4.101563 -1.695313 -8.660157 -0.183594 -12.804688 l 3.1875 -8.757812 c 1.851562 -5.082031 1.453125 -10.710938 -1.09375 -15.484375 c -2.941406 -5.515625 -12.988281 -10.644532 -21.960938 -8.515625 c -10.710937 2.546875 -16.792968 7.769531 -23.332031 11.535156 c 1.242188 3.398437 2.207031 7.019531 6.78125 7.789063 l -6.164062 18.464843 l 5.113281 -0.09375 v 8.976563 c 0 1.761718 1.371094 3.21875 3.128906 3.332031 l 4.632813 0.292969 c 1.976562 0.125 3.78125 1.148437 4.90625 2.777344 z m 0 0"
               fill="#3584e4"
               id="path9" />
            <path
               d="m 51.765625 67.835938 c 0 0.980468 -0.796875 1.777343 -1.777344 1.777343 c -0.984375 0 -1.777343 -0.796875 -1.777343 -1.777343 c 0 -0.984376 0.792968 -1.777344 1.777343 -1.777344 c 0.980469 0 1.777344 0.792968 1.777344 1.777344 z m 0 0"
               fill="#ffffff"
               id="path10" />
            <path
               d="m 67.40625 62.960938 c 0 1.535156 -1.246094 2.777343 -2.777344 2.777343 c -1.535156 0 -2.777344 -1.242187 -2.777344 -2.777343 c 0 -1.535157 1.242188 -2.777344 2.777344 -2.777344 c 1.53125 0 2.777344 1.242187 2.777344 2.777344 z m 0 0"
               fill="#ffffff"
               id="path11" />
            <path
               d="m 61.132812 53.699219 c 0 1.535156 -1.242187 2.777343 -2.777343 2.777343 c -1.53125 0 -2.777344 -1.242187 -2.777344 -2.777343 c 0 -1.535157 1.246094 -2.777344 2.777344 -2.777344 c 1.535156 0 2.777343 1.242187 2.777343 2.777344 z m 0 0"
               fill="#ffffff"
               id="path12" />
            <path
               d="m 70.910156 50.886719 c 0 1.535156 -1.242187 2.777343 -2.777344 2.777343 c -1.53125 0 -2.777343 -1.242187 -2.777343 -2.777343 c 0 -1.535157 1.246093 -2.777344 2.777343 -2.777344 c 1.535157 0 2.777344 1.242187 2.777344 2.777344 z m 0 0"
               fill="#ffffff"
               id="path13" />
            <path
               d="m 78.84375 57.707031 c 0 1.535157 -1.242188 2.777344 -2.777344 2.777344 s -2.777344 -1.242187 -2.777344 -2.777344 c 0 -1.535156 1.242188 -2.777343 2.777344 -2.777343 s 2.777344 1.242187 2.777344 2.777343 z m 0 0"
               fill="#ffffff"
               id="path14" />
            <path
               d="m 78.136719 68.425781 c 0 1.535157 -1.242188 2.777344 -2.777344 2.777344 c -1.53125 0 -2.777344 -1.242187 -2.777344 -2.777344 c 0 -1.535156 1.246094 -2.777343 2.777344 -2.777343 c 1.535156 0 2.777344 1.242187 2.777344 2.777343 z m 0 0"
               fill="#ffffff"
               id="path15" />
            <path
               d="m 76.765911 241.436716 l -10.761718 -5.617187 l 11.546875 -5.160157"
               fill="none"
               stroke="#ffffff"
               transform="matrix(1 0 0 1 -1.359661 -172.874216)"
               id="path16" />
            <path
               d="m 69.633099 223.674997 l -3.628906 12.144532 l -6.273438 -9.21875"
               fill="none"
               stroke="#ffffff"
               transform="matrix(1 0 0 1 -1.359661 -172.874216)"
               id="path17" />
            <path
               d="m 66.183594 62.960938 c 0 0.859374 -0.695313 1.554687 -1.554688 1.554687 s -1.558594 -0.695313 -1.558594 -1.554687 c 0 -0.859376 0.699219 -1.558594 1.558594 -1.558594 s 1.554688 0.699218 1.554688 1.558594 z m 0 0"
               fill="#3584e4"
               id="path18" />
          </g>
        </g>
      </g>
    </mask>
    <mask
       id="o">
      <g
         filter="url(#a)"
         id="g21">
        <rect
           fill-opacity="0.8"
           height="184.32"
           width="184.32"
           x="-28.16"
           y="-28.16"
           id="rect20" />
      </g>
    </mask>
    <linearGradient
       id="p"
       gradientTransform="matrix(0 0.37 -0.98462 0 295.38501 -30.360001)"
       gradientUnits="userSpaceOnUse"
       x1="300"
       x2="428"
       y1="235"
       y2="235">
      <stop
         offset="0"
         stop-color="#f9f06b"
         id="stop21" />
      <stop
         offset="1"
         stop-color="#f5c211"
         id="stop22" />
    </linearGradient>
    <clipPath
       id="q">
      <rect
         height="128"
         width="128"
         id="rect22" />
    </clipPath>
    <clipPath
       id="r">
      <rect
         height="128"
         width="128"
         id="rect23" />
    </clipPath>
  </defs>
  <path
     d="m 30.574219 17.492188 l 89.628906 24.015624 c 5.125 1.371094 8.234375 6.378907 6.949219 11.179688 l -18.121094 67.613281 c -1.285156 4.800781 -6.480469 7.582031 -11.605469 6.207031 l -89.628906 -24.015624 c -5.125 -1.371094 -8.234375 -6.378907 -6.949219 -11.179688 l 18.121094 -67.613281 c 1.285156 -4.800781 6.480469 -7.582031 11.605469 -6.207031 z m 0 0"
     fill="#3584e4"
     id="path23" />
  <path
     d="m 17.605469 28 h 92.789062 c 5.304688 0 9.605469 4.03125 9.605469 9 v 70 c 0 4.96875 -4.300781 9 -9.605469 9 h -92.789062 c -5.304688 0 -9.605469 -4.03125 -9.605469 -9 v -70 c 0 -4.96875 4.300781 -9 9.605469 -9 z m 0 0"
     fill="#ffffff"
     id="path24" />
  <g
     mask="url(#b)"
     id="g24">
    <use
       transform="matrix(1 0 0 1 -8 -16)"
       xlink:href="#k"
       id="use24" />
  </g>
  <g
     mask="url(#n)"
     id="g39">
    <g
       clip-path="url(#r)"
       id="g38">
      <g
         mask="url(#o)"
         id="g37">
        <g
           clip-path="url(#q)"
           id="g36">
          <path
             d="m 128 80.640625 v 47.359375 h -128 v -47.359375 z m 0 0"
             fill="url(#p)"
             id="path35" />
          <path
             d="m 13.308594 80.640625 l 47.355468 47.359375 h 21.214844 l -47.359375 -47.359375 z m 42.421875 0 l 47.363281 47.359375 h 21.214844 l -47.363282 -47.359375 z m 42.429687 0 l 29.839844 29.839844 v -21.210938 l -8.628906 -8.628906 z m -98.160156 7.90625 v 21.214844 l 18.238281 18.238281 h 21.214844 z m 0 0"
             id="path36" />
        </g>
      </g>
    </g>
  </g>
  <path
     d="m 60.320312 101.636719 l 22.105469 -10.554688 l -1.054687 -2.664062 c -1.628906 -4.101563 -1.695313 -8.660157 -0.183594 -12.804688 l 3.1875 -8.757812 c 1.851562 -5.082031 1.453125 -10.710938 -1.09375 -15.484375 c -2.941406 -5.515625 -12.988281 -10.644532 -21.960938 -8.515625 c -10.710937 2.546875 -16.792968 7.769531 -23.332031 11.535156 c 1.242188 3.398437 2.207031 7.019531 6.78125 7.789063 l -6.164062 18.464843 l 5.113281 -0.09375 v 8.976563 c 0 1.761718 1.371094 3.21875 3.128906 3.332031 l 4.632813 0.292969 c 1.976562 0.125 3.78125 1.148437 4.90625 2.777344 z m 0 0"
     fill="#3584e4"
     id="path25" />
  <g
     fill="#ffffff"
     id="g31">
    <path
       d="m 51.765625 67.835938 c 0 0.980468 -0.796875 1.777343 -1.777344 1.777343 c -0.984375 0 -1.777343 -0.796875 -1.777343 -1.777343 c 0 -0.984376 0.792968 -1.777344 1.777343 -1.777344 c 0.980469 0 1.777344 0.792968 1.777344 1.777344 z m 0 0"
       id="path26" />
    <path
       d="m 67.40625 62.960938 c 0 1.535156 -1.246094 2.777343 -2.777344 2.777343 c -1.535156 0 -2.777344 -1.242187 -2.777344 -2.777343 c 0 -1.535157 1.242188 -2.777344 2.777344 -2.777344 c 1.53125 0 2.777344 1.242187 2.777344 2.777344 z m 0 0"
       id="path27" />
    <path
       d="m 61.132812 53.699219 c 0 1.535156 -1.242187 2.777343 -2.777343 2.777343 c -1.53125 0 -2.777344 -1.242187 -2.777344 -2.777343 c 0 -1.535157 1.246094 -2.777344 2.777344 -2.777344 c 1.535156 0 2.777343 1.242187 2.777343 2.777344 z m 0 0"
       id="path28" />
    <path
       d="m 70.910156 50.886719 c 0 1.535156 -1.242187 2.777343 -2.777344 2.777343 c -1.53125 0 -2.777343 -1.242187 -2.777343 -2.777343 c 0 -1.535157 1.246093 -2.777344 2.777343 -2.777344 c 1.535157 0 2.777344 1.242187 2.777344 2.777344 z m 0 0"
       id="path29" />
    <path
       d="m 78.84375 57.707031 c 0 1.535157 -1.242188 2.777344 -2.777344 2.777344 s -2.777344 -1.242187 -2.777344 -2.777344 c 0 -1.535156 1.242188 -2.777343 2.777344 -2.777343 s 2.777344 1.242187 2.777344 2.777343 z m 0 0"
       id="path30" />
    <path
       d="m 78.136719 68.425781 c 0 1.535157 -1.242188 2.777344 -2.777344 2.777344 c -1.53125 0 -2.777344 -1.242187 -2.777344 -2.777344 c 0 -1.535156 1.246094 -2.777343 2.777344 -2.777343 c 1.535156 0 2.777344 1.242187 2.777344 2.777343 z m 0 0"
       id="path31" />
  </g>
  <path
     d="m 75.40625 68.5625 l -10.761718 -5.617187 l 11.546875 -5.160157"
     fill="none"
     stroke="#ffffff"
     id="path32" />
  <path
     d="m 68.273438 50.800781 l -3.628906 12.144532 l -6.273438 -9.21875"
     fill="none"
     stroke="#ffffff"
     id="path33" />
  <path
     d="m 66.183594 62.960938 c 0 0.859374 -0.695313 1.554687 -1.554688 1.554687 s -1.558594 -0.695313 -1.558594 -1.554687 c 0 -0.859376 0.699219 -1.558594 1.558594 -1.558594 s 1.554688 0.699218 1.554688 1.558594 z m 0 0"
     fill="#3584e4"
     id="path34" />
</svg>
