<?xml version="1.0" encoding="UTF-8"?>
<svg height="16px" viewBox="0 0 16 16" width="16px" xmlns="http://www.w3.org/2000/svg">
    <path d="m 2 1.441406 c -1.089844 0 -2 1 -2 2.203125 v 8.804688 c 0 1.199219 0.910156 2.203125 2 2.203125 h 12 c 1.089844 0 2 -1.003906 2 -2.203125 v -8.804688 c 0 -1.203125 -0.910156 -2.203125 -2 -2.203125 h -9 v 2.203125 h 9 v 8.804688 h -12 v -8.804688 h 3 v -2.203125 z m 0 0"/>
    <g fill="#ffffff" stroke="#000000" stroke-miterlimit="16.299999" transform="matrix(1.02513 -0 0 0.984153 258.455566 -19.453568)">
        <path d="m -248.168278 25.645124 h 7.510479 v 0.019846 h -7.510479 z m 0 0" stroke-width="0.999198"/>
        <path d="m -248.172089 27.665421 h 3.216055 v 0.043661 h -3.216055 z m 0 0" stroke-width="1.00092"/>
    </g>
</svg>
