<?xml version="1.0" encoding="UTF-8" standalone="no"?>
<svg
   height="128px"
   viewBox="0 0 128 128"
   width="128px"
   version="1.1"
   id="svg17"
   sodipodi:docname="io.github.david_swift.Flashcards-shadow.svg"
   inkscape:version="1.3.2 (091e20ef0f, 2023-11-25)"
   xmlns:inkscape="http://www.inkscape.org/namespaces/inkscape"
   xmlns:sodipodi="http://sodipodi.sourceforge.net/DTD/sodipodi-0.dtd"
   xmlns:xlink="http://www.w3.org/1999/xlink"
   xmlns="http://www.w3.org/2000/svg"
   xmlns:svg="http://www.w3.org/2000/svg">
  <defs
     id="defs17">
    <filter
       style="color-interpolation-filters:sRGB;"
       inkscape:label="Drop Shadow"
       id="filter28"
       x="-0.05674363"
       y="-0.065619511"
       width="1.1134873"
       height="1.131239">
      <feFlood
         result="flood"
         in="SourceGraphic"
         flood-opacity="0.247059"
         flood-color="rgb(0,0,0)"
         id="feFlood27" />
      <feGaussianBlur
         result="blur"
         in="SourceGraphic"
         stdDeviation="3.000000"
         id="feGaussianBlur27" />
      <feOffset
         result="offset"
         in="blur"
         dx="0.000000"
         dy="0.000000"
         id="feOffset27" />
      <feComposite
         result="comp1"
         operator="in"
         in="flood"
         in2="offset"
         id="feComposite27" />
      <feComposite
         result="comp2"
         operator="over"
         in="SourceGraphic"
         in2="comp1"
         id="feComposite28" />
    </filter>
  </defs>
  <sodipodi:namedview
     id="namedview17"
     pagecolor="#ffffff"
     bordercolor="#000000"
     borderopacity="0.25"
     inkscape:showpageshadow="2"
     inkscape:pageopacity="0.0"
     inkscape:pagecheckerboard="0"
     inkscape:deskcolor="#d1d1d1"
     inkscape:zoom="4.2576294"
     inkscape:cx="56.134524"
     inkscape:cy="67.408403"
     inkscape:window-width="1120"
     inkscape:window-height="1048"
     inkscape:window-x="26"
     inkscape:window-y="23"
     inkscape:window-maximized="0"
     inkscape:current-layer="svg17" />
  <filter
     id="a"
     height="1"
     width="1"
     x="0"
     y="0">
    <feColorMatrix
       color-interpolation-filters="sRGB"
       values="0 0 0 0 1 0 0 0 0 1 0 0 0 0 1 0 0 0 1 0"
       id="feColorMatrix1" />
  </filter>
  <mask
     id="b">
    <g
       filter="url(#a)"
       id="g1">
      <rect
         fill-opacity="0.369691"
         height="153.6"
         width="153.6"
         x="-12.8"
         y="-12.8"
         id="rect1" />
    </g>
  </mask>
  <linearGradient
     id="c"
     gradientUnits="userSpaceOnUse">
    <stop
       offset="0"
       stop-color="#3d3846"
       id="stop1" />
    <stop
       offset="1"
       stop-color="#3d3846"
       stop-opacity="0"
       id="stop2" />
  </linearGradient>
  <linearGradient
     id="d"
     gradientTransform="matrix(1.025978,0.27491,-0.259881,0.96989,189.96539,-253.36476)"
     x1="19.363415"
     x2="21.556448"
     xlink:href="#c"
     y1="391.839661"
     y2="400.497467" />
  <linearGradient
     id="e"
     gradientTransform="matrix(1.025978,0.27491,-0.259881,0.96989,189.96539,-253.36476)"
     x1="-70.879456"
     x2="-77.245186"
     xlink:href="#c"
     y1="389.580292"
     y2="391.384613" />
  <linearGradient
     id="f"
     gradientTransform="matrix(1.025978,0.27491,-0.259881,0.96989,189.96539,-253.36476)"
     x1="23.174662"
     x2="28.630997"
     xlink:href="#c"
     y1="329.927795"
     y2="328.381226" />
  <linearGradient
     id="g"
     gradientTransform="matrix(1.025978,0.27491,-0.259881,0.96989,189.96539,-253.36476)"
     x1="-60.280441"
     x2="-62.229801"
     xlink:href="#c"
     y1="323.682373"
     y2="315.986542" />
  <clipPath
     id="h">
    <rect
       height="152"
       width="192"
       id="rect2" />
  </clipPath>
  <g
     id="g17"
     transform="matrix(0.713664,0,0,0.713664,18.325187,20.616235)"
     style="filter:url(#filter28)">
    <path
       d="m 30.574219,17.492188 89.628911,24.015624 c 5.125,1.371094 8.23437,6.378907 6.94921,11.179688 l -18.12109,67.61328 c -1.28516,4.80078 -6.48047,7.58203 -11.605469,6.20703 L 7.796875,102.49219 C 2.671875,101.12109 -0.4375,96.113281 0.847656,91.3125 L 18.96875,23.699219 c 1.285156,-4.800781 6.480469,-7.582031 11.605469,-6.207031 z m 0,0"
       fill="#3584e4"
       id="path2" />
    <path
       d="M 17.605469,28 H 110.39453 C 115.69922,28 120,32.03125 120,37 v 70 c 0,4.96875 -4.30078,9 -9.60547,9 H 17.605469 C 12.300781,116 8,111.96875 8,107 V 37 c 0,-4.96875 4.300781,-9 9.605469,-9 z m 0,0"
       fill="#ffffff"
       id="path3" />
    <g
       mask="url(#b)"
       id="g8">
      <g
         clip-path="url(#h)"
         transform="translate(-8,-16)"
         id="g7">
        <path
           d="m 66.207031,132 39.218749,10.50781 c 5.14063,1.37891 10.31641,-1.39062 11.60547,-6.20703 L 118.18359,132 Z m 0,0"
           fill="url(#d)"
           id="path4"
           style="fill:url(#d)" />
        <path
           d="M 16,80.628906 8.847656,107.31641 c -1.289062,4.8125 1.808594,9.79687 6.949219,11.17578 L 16,118.54688 Z m 0,0"
           fill="url(#e)"
           id="path5"
           style="fill:url(#e)" />
        <path
           d="M 128,57.453125 V 95.371094 L 135.14844,68.6875 c 1.29297,-4.816406 -1.80469,-9.800781 -6.94532,-11.179688 z m 0,0"
           fill="url(#f)"
           id="path6"
           style="fill:url(#f)" />
        <path
           d="m 35.703125,33.140625 c -4.074219,0.08594 -7.6875,2.644531 -8.734375,6.558594 L 25.8125,44 H 77.792969 L 38.570312,33.488281 c -0.960937,-0.257812 -1.925781,-0.367187 -2.867187,-0.347656 z m 0,0"
           fill="url(#g)"
           id="path7"
           style="fill:url(#g)" />
      </g>
    </g>
    <path
       d="M 60.320312,101.63672 82.425781,91.082031 81.371094,88.417969 C 79.742188,84.316406 79.675781,79.757812 81.1875,75.613281 L 84.375,66.855469 C 86.226562,61.773438 85.828125,56.144531 83.28125,51.371094 80.339844,45.855469 70.292969,40.726562 61.320312,42.855469 50.609375,45.402344 44.527344,50.625 37.988281,54.390625 c 1.242188,3.398437 2.207031,7.019531 6.78125,7.789063 l -6.164062,18.464843 5.113281,-0.09375 v 8.976563 c 0,1.761718 1.371094,3.21875 3.128906,3.332031 l 4.632813,0.292969 c 1.976562,0.125 3.78125,1.148437 4.90625,2.777344 z m 0,0"
       fill="#3584e4"
       id="path8" />
    <g
       fill="#ffffff"
       id="g14">
      <path
         d="m 51.765625,67.835938 c 0,0.980468 -0.796875,1.777343 -1.777344,1.777343 -0.984375,0 -1.777343,-0.796875 -1.777343,-1.777343 0,-0.984376 0.792968,-1.777344 1.777343,-1.777344 0.980469,0 1.777344,0.792968 1.777344,1.777344 z m 0,0"
         id="path9" />
      <path
         d="m 67.40625,62.960938 c 0,1.535156 -1.246094,2.777343 -2.777344,2.777343 -1.535156,0 -2.777344,-1.242187 -2.777344,-2.777343 0,-1.535157 1.242188,-2.777344 2.777344,-2.777344 1.53125,0 2.777344,1.242187 2.777344,2.777344 z m 0,0"
         id="path10" />
      <path
         d="m 61.132812,53.699219 c 0,1.535156 -1.242187,2.777343 -2.777343,2.777343 -1.53125,0 -2.777344,-1.242187 -2.777344,-2.777343 0,-1.535157 1.246094,-2.777344 2.777344,-2.777344 1.535156,0 2.777343,1.242187 2.777343,2.777344 z m 0,0"
         id="path11" />
      <path
         d="m 70.910156,50.886719 c 0,1.535156 -1.242187,2.777343 -2.777344,2.777343 -1.53125,0 -2.777343,-1.242187 -2.777343,-2.777343 0,-1.535157 1.246093,-2.777344 2.777343,-2.777344 1.535157,0 2.777344,1.242187 2.777344,2.777344 z m 0,0"
         id="path12" />
      <path
         d="m 78.84375,57.707031 c 0,1.535157 -1.242188,2.777344 -2.777344,2.777344 -1.535156,0 -2.777344,-1.242187 -2.777344,-2.777344 0,-1.535156 1.242188,-2.777343 2.777344,-2.777343 1.535156,0 2.777344,1.242187 2.777344,2.777343 z m 0,0"
         id="path13" />
      <path
         d="m 78.136719,68.425781 c 0,1.535157 -1.242188,2.777344 -2.777344,2.777344 -1.53125,0 -2.777344,-1.242187 -2.777344,-2.777344 0,-1.535156 1.246094,-2.777343 2.777344,-2.777343 1.535156,0 2.777344,1.242187 2.777344,2.777343 z m 0,0"
         id="path14" />
    </g>
    <path
       d="M 75.40625,68.5625 64.644532,62.945313 76.191407,57.785156"
       fill="none"
       stroke="#ffffff"
       id="path15" />
    <path
       d="m 68.273438,50.800781 -3.628906,12.144532 -6.273438,-9.21875"
       fill="none"
       stroke="#ffffff"
       id="path16" />
    <path
       d="m 66.183594,62.960938 c 0,0.859374 -0.695313,1.554687 -1.554688,1.554687 -0.859375,0 -1.558594,-0.695313 -1.558594,-1.554687 0,-0.859376 0.699219,-1.558594 1.558594,-1.558594 0.859375,0 1.554688,0.699218 1.554688,1.558594 z m 0,0"
       fill="#3584e4"
       id="path17" />
  </g>
</svg>
