<?xml version="1.0" encoding="UTF-8"?>
<svg height="128px" viewBox="0 0 128 128" width="128px" xmlns="http://www.w3.org/2000/svg" xmlns:xlink="http://www.w3.org/1999/xlink">
    <radialGradient id="a" cx="63.649818" cy="297.94458" gradientTransform="matrix(1 0 0 0.721658 0 -102.776207)" gradientUnits="userSpaceOnUse" r="53.799221">
        <stop offset="0.831386" stop-color="#c01c28"/>
        <stop offset="1" stop-color="#ed313a"/>
    </radialGradient>
    <path d="m 17.855469 37.875 h 96.703125 c 3.007812 0 5.449218 2.4375 5.449218 5.445312 v 66.757813 c 0 3.007813 -2.441406 5.445313 -5.449218 5.445313 h -96.703125 c -3.007813 0 -5.449219 -2.4375 -5.449219 -5.445313 v -66.757813 c 0 -3.007812 2.441406 -5.445312 5.449219 -5.445312 z m 0 0" fill="url(#a)"/>
    <path d="m 17.871094 27.773438 h 96.601562 c 3.039063 0 5.5 2.460937 5.5 5.496093 v 70.613281 c 0 3.035157 -2.460937 5.496094 -5.5 5.496094 h -96.601562 c -3.035156 0 -5.496094 -2.460937 -5.496094 -5.496094 v -70.613281 c 0 -3.035156 2.460938 -5.496093 5.496094 -5.496093 z m 0 0" fill="#ed333b"/>
    <g fill="#ffffff">
        <path d="m 75.234375 71.308594 l 7.378906 -32.078125 l 5.871094 14.515625 l 21.789063 -4.382813 z m 0 0"/>
        <path d="m 75.492188 71.582031 l -23.480469 -41.40625 l 4.667969 26.765625 l -34.101563 -2.972656 z m 0 0"/>
        <path d="m 75.113281 71.566406 l -51.121093 13.871094 l 42.402343 -2.71875 l 12.320313 24.933594 z m 0 0"/>
        <path d="m 75.484375 71.605469 l 15.601563 1.195312 l 1.117187 15.5 z m 0 0"/>
    </g>
</svg>
