<?xml version="1.0" encoding="UTF-8"?>
<svg xmlns="http://www.w3.org/2000/svg" xmlns:xlink="http://www.w3.org/1999/xlink" height="16px" viewBox="0 0 16 16" width="16px"><filter id="a" height="100%" width="100%" x="0%" y="0%"><feColorMatrix color-interpolation-filters="sRGB" values="0 0 0 0 1 0 0 0 0 1 0 0 0 0 1 0 0 0 1 0"/></filter><mask id="b"><g filter="url(#a)"><path d="m -1.6 -1.6 h 19.2 v 19.2 h -19.2 z" fill-opacity="0.5"/></g></mask><clipPath id="c"><path d="m 0 0 h 1600 v 1200 h -1600 z"/></clipPath><mask id="d"><g filter="url(#a)"><path d="m -1.6 -1.6 h 19.2 v 19.2 h -19.2 z" fill-opacity="0.7"/></g></mask><clipPath id="e"><path d="m 0 0 h 1600 v 1200 h -1600 z"/></clipPath><mask id="f"><g filter="url(#a)"><path d="m -1.6 -1.6 h 19.2 v 19.2 h -19.2 z" fill-opacity="0.35"/></g></mask><clipPath id="g"><path d="m 0 0 h 1600 v 1200 h -1600 z"/></clipPath><g mask="url(#b)"><g clip-path="url(#c)" transform="matrix(1 0 0 1 -156 -1044)"><path d="m 550 182 c -0.351562 0.003906 -0.695312 0.101562 -1 0.28125 v 3.4375 c 0.304688 0.179688 0.648438 0.277344 1 0.28125 c 1.105469 0 2 -0.894531 2 -2 s -0.894531 -2 -2 -2 z m 0 5 c -0.339844 0 -0.679688 0.058594 -1 0.175781 v 6.824219 h 4 v -4 c 0 -1.65625 -1.34375 -3 -3 -3 z m 0 0"/></g></g><g mask="url(#d)"><g clip-path="url(#e)" transform="matrix(1 0 0 1 -156 -1044)"><path d="m 569 182 v 4 c 1.105469 0 2 -0.894531 2 -2 s -0.894531 -2 -2 -2 z m 0 5 v 7 h 3 v -4 c 0 -1.65625 -1.34375 -3 -3 -3 z m 0 0"/></g></g><g mask="url(#f)"><g clip-path="url(#g)" transform="matrix(1 0 0 1 -156 -1044)"><path d="m 573 182.269531 v 3.449219 c 0.613281 -0.355469 0.996094 -1.007812 1 -1.71875 c 0 -0.714844 -0.382812 -1.375 -1 -1.730469 z m 0 4.90625 v 6.824219 h 2 v -4 c 0 -1.269531 -0.800781 -2.402344 -2 -2.824219 z m 0 0"/></g></g><g fill="#222222"><path d="m 4.078125 12.289062 l -2.425781 2.351563 l 0.695312 0.71875 l 1.695313 -1.648437 l 1.878906 2.003906 l 2.042969 -2.007813 l 2.007812 2 l 1.972656 -2 l 1.707032 1.652344 l 0.695312 -0.71875 l -2.417968 -2.347656 l -1.964844 1.996093 l -1.992188 -1.996093 l -2.023437 1.988281 z m 0 0"/><path d="m 5 4 h 5 c 0.546875 0 1 0.453125 1 1 v 3.925781 c 0 0.589844 -0.484375 1.074219 -1.074219 1.074219 h -3.917969 c -0.589843 0 -1.078124 -0.484375 -1.078124 -1.074219 v 0.035157 c 0.019531 -0.546876 0.488281 -0.980469 1.035156 -0.960938 h 0.035156 h 6 c 0.550781 0 1 -0.449219 1 -1 s -0.449219 -1 -1 -1 h -6 h 0.035156 c -1.660156 -0.058594 -3.046875 1.230469 -3.105468 2.890625 v 0.039063 c 0.003906 1.703124 1.375 3.070312 3.078124 3.070312 h 3.917969 c 1.703125 0 3.074219 -1.371094 3.074219 -3.074219 v -3.925781 c 0 -1.664062 -1.335938 -3 -3 -3 h -5 c -0.550781 0 -1 0.449219 -1 1 s 0.449219 1 1 1 z m 0 0"/></g></svg>
